<svg xmlns="http://www.w3.org/2000/svg" width="139.56" height="29.285" viewBox="0 0 139.56 29.285"><defs><style>.a{fill:#fff;}.b{fill:#2bb8d9;}</style></defs><g transform="translate(-208.919 -298.754)"><path class="a" d="M222.313,347.931a.5.5,0,0,1-.52-.369l-4.511-9.776h-4.06q-.208,0-.208.221v9.554a.339.339,0,0,1-.347.369h-3.4a.339.339,0,0,1-.347-.369V323.216a.339.339,0,0,1,.347-.369h9.126a7.228,7.228,0,0,1,7.53,7.488,7.131,7.131,0,0,1-4.476,6.9l4.962,10.218c.139.258,0,.48-.243.48Zm-.451-17.6a3.387,3.387,0,0,0-3.609-3.578h-5.031c-.139,0-.208.074-.208.221v6.677q0,.221.208.221h5.031A3.377,3.377,0,0,0,221.862,330.335Z" transform="translate(0 -20.274)"/><path class="a" d="M306.981,368.608a.328.328,0,0,1-.347-.347v-1.215H306.6c-.8,1.145-2.36,1.943-4.719,1.943-3.053,0-5.621-1.6-5.621-5.1,0-3.643,2.568-5.309,6.7-5.309h3.4a.184.184,0,0,0,.208-.208v-.8c0-1.909-.9-2.776-3.713-2.776a5.864,5.864,0,0,0-3.817,1.145.311.311,0,0,1-.486-.069l-1.284-2.29a.323.323,0,0,1,.069-.451,9.76,9.76,0,0,1,5.934-1.631c5.1,0,6.974,1.735,6.974,5.83v10.93a.328.328,0,0,1-.347.347Zm-.416-5.622V361.7a.184.184,0,0,0-.208-.208H303.58c-2.5,0-3.609.694-3.609,2.255,0,1.388,1.006,2.082,2.88,2.082C305.246,365.832,306.565,364.9,306.565,362.987Z" transform="translate(-67.562 -40.951)"/><path class="a" d="M1.532,0h.822A1.532,1.532,0,0,1,3.886,1.532V15.193a1.532,1.532,0,0,1-1.532,1.532H1.533A1.533,1.533,0,0,1,0,15.192V1.532A1.532,1.532,0,0,1,1.532,0Z" transform="translate(246.543 310.932)"/><path class="a" d="M406.841,366.353a.336.336,0,0,1,0-.486l1.978-2.082a.336.336,0,0,1,.486,0,7.741,7.741,0,0,0,4.893,1.909c2.047,0,3.088-.833,3.088-1.978,0-1.006-.59-1.631-2.776-1.839l-1.8-.174c-3.4-.347-5.135-2.082-5.135-4.927,0-3.227,2.325-5.275,6.489-5.275a10.14,10.14,0,0,1,6.281,2.047.343.343,0,0,1,.069.486l-1.7,2.048a.34.34,0,0,1-.486.069,8.073,8.073,0,0,0-4.372-1.388c-1.666,0-2.533.729-2.533,1.735,0,.972.59,1.561,2.741,1.77l1.8.174c3.5.347,5.17,2.151,5.17,4.893,0,3.331-2.429,5.656-7.009,5.656A10.371,10.371,0,0,1,406.841,366.353Z" transform="translate(-153.275 -40.951)"/><path class="a" d="M480.722,364.34a12.97,12.97,0,0,1-.59-4.094,13.329,13.329,0,0,1,.555-4.13c.937-2.915,3.5-4.615,6.836-4.615,3.435,0,5.934,1.77,6.87,4.615a14.985,14.985,0,0,1,.555,5.031.338.338,0,0,1-.382.347H484.261a.184.184,0,0,0-.208.208,3.889,3.889,0,0,0,3.99,3.817,5.042,5.042,0,0,0,3.921-1.6.354.354,0,0,1,.52-.07l2.047,1.8a.311.311,0,0,1,.035.486,8.814,8.814,0,0,1-6.87,2.845C484.157,368.99,481.659,367.255,480.722,364.34Zm10.1-7.391a3.574,3.574,0,0,0-6.558,0,4.246,4.246,0,0,0-.208,1.423.184.184,0,0,0,.208.208h6.558a.184.184,0,0,0,.208-.208A4.245,4.245,0,0,0,490.819,356.949Z" transform="translate(-210.145 -40.951)"/><path class="a" d="M551.946,347.931a.339.339,0,0,1-.347-.369V326.978c0-.147-.069-.221-.208-.221h-6.177a.339.339,0,0,1-.347-.369v-3.172a.339.339,0,0,1,.347-.369h16.864a.339.339,0,0,1,.347.369v3.172a.339.339,0,0,1-.347.369H555.9c-.139,0-.208.074-.208.221v20.584a.339.339,0,0,1-.347.369Z" transform="translate(-260.314 -20.274)"/><path class="a" d="M617.641,364.34a12.97,12.97,0,0,1-.59-4.094,13.328,13.328,0,0,1,.555-4.13c.937-2.915,3.5-4.615,6.836-4.615,3.435,0,5.934,1.77,6.87,4.615a14.988,14.988,0,0,1,.555,5.031.338.338,0,0,1-.382.347H621.18a.184.184,0,0,0-.208.208,3.89,3.89,0,0,0,3.991,3.817,5.042,5.042,0,0,0,3.921-1.6.354.354,0,0,1,.52-.07l2.047,1.8a.311.311,0,0,1,.035.486,8.814,8.814,0,0,1-6.87,2.845C621.076,368.99,618.578,367.255,617.641,364.34Zm10.1-7.391a3.574,3.574,0,0,0-6.558,0,4.246,4.246,0,0,0-.208,1.423.184.184,0,0,0,.208.208h6.558a.184.184,0,0,0,.208-.208A4.249,4.249,0,0,0,627.738,356.949Z" transform="translate(-316.234 -40.951)"/><path class="a" d="M693.574,364.375a16.636,16.636,0,0,1,0-8.259c.971-2.984,3.539-4.615,6.9-4.615a7.284,7.284,0,0,1,5.795,2.6.337.337,0,0,1-.034.486l-2.186,1.909a.314.314,0,0,1-.486-.07,3.787,3.787,0,0,0-3.088-1.457,3.067,3.067,0,0,0-3.123,2.186,9.831,9.831,0,0,0-.347,3.089,10.064,10.064,0,0,0,.347,3.123,3.078,3.078,0,0,0,3.123,2.151,3.786,3.786,0,0,0,3.088-1.457.311.311,0,0,1,.486-.035l2.186,1.909c.173.139.139.312.034.486a7.366,7.366,0,0,1-5.795,2.568C697.113,368.99,694.545,367.359,693.574,364.375Z" transform="translate(-375.212 -40.951)"/><path class="a" d="M776.572,347.931a.339.339,0,0,1-.347-.369V337.307c0-2.287-1.076-3.873-3.158-3.873-2.012,0-3.192,1.586-3.192,3.873v10.255a.339.339,0,0,1-.347.369h-3.192a.339.339,0,0,1-.347-.369V323.216a.339.339,0,0,1,.347-.369h3.192a.339.339,0,0,1,.347.369v8.6h.035a5.056,5.056,0,0,1,4.407-2.066c3.574,0,5.795,2.8,5.795,6.6v11.214a.339.339,0,0,1-.347.369Z" transform="translate(-431.632 -20.274)"/><path class="b" d="M359.268,308.693H369.52a.678.678,0,0,0,.677-.982l-5.126-8.6a.817.817,0,0,0-1.354,0l-5.126,8.6A.678.678,0,0,0,359.268,308.693Z" transform="translate(-115.898 0)"/></g></svg>