<svg xmlns="http://www.w3.org/2000/svg" width="196.78" height="41.29" viewBox="0 0 196.78 41.29"><defs><style>.a{fill:#131d34;}.b{fill:#2bb8d9;}</style></defs><g transform="translate(-208.919 -298.754)"><path class="a" d="M227.8,356.117a.7.7,0,0,1-.734-.489l-6.361-12.965h-5.724a.26.26,0,0,0-.294.294v12.672a.462.462,0,0,1-.489.489h-4.794a.463.463,0,0,1-.489-.489V323.336a.462.462,0,0,1,.489-.489h12.867c6.116,0,10.617,4.061,10.617,9.932a9.464,9.464,0,0,1-6.311,9.149l7,13.553a.393.393,0,0,1-.342.636Zm-.636-23.338c0-2.887-2.055-4.746-5.088-4.746h-7.094a.26.26,0,0,0-.294.293v8.856a.26.26,0,0,0,.294.293h7.094C225.113,337.476,227.168,335.617,227.168,332.779Z" transform="translate(0 -16.61)"/><path class="a" d="M311.377,375.622a.462.462,0,0,1-.489-.489V373.42h-.049c-1.125,1.614-3.327,2.74-6.654,2.74-4.305,0-7.926-2.25-7.926-7.192,0-5.137,3.62-7.486,9.442-7.486H310.5a.259.259,0,0,0,.294-.293v-1.126c0-2.691-1.272-3.914-5.235-3.914a8.268,8.268,0,0,0-5.382,1.615.439.439,0,0,1-.685-.1l-1.81-3.229a.456.456,0,0,1,.1-.636,13.762,13.762,0,0,1,8.366-2.3c7.192,0,9.834,2.446,9.834,8.22v15.411a.462.462,0,0,1-.489.489Zm-.587-7.926v-1.81a.26.26,0,0,0-.294-.293h-3.914c-3.523,0-5.088.978-5.088,3.18,0,1.957,1.419,2.936,4.061,2.936C308.931,371.708,310.79,370.386,310.79,367.7Z" transform="translate(-59.453 -36.115)"/><path class="a" d="M1.532,0H3.948A1.532,1.532,0,0,1,5.48,1.532V22.05a1.532,1.532,0,0,1-1.532,1.532H1.533A1.533,1.533,0,0,1,0,22.049V1.532A1.532,1.532,0,0,1,1.532,0Z" transform="translate(261.969 315.924)"/><path class="a" d="M406.884,372.441a.473.473,0,0,1,0-.685l2.789-2.936a.473.473,0,0,1,.685,0,10.915,10.915,0,0,0,6.9,2.691c2.887,0,4.354-1.174,4.354-2.789,0-1.419-.832-2.3-3.914-2.593l-2.544-.245c-4.795-.489-7.241-2.935-7.241-6.947,0-4.55,3.278-7.437,9.149-7.437a14.3,14.3,0,0,1,8.855,2.887.484.484,0,0,1,.1.685l-2.4,2.887a.479.479,0,0,1-.685.1,11.384,11.384,0,0,0-6.164-1.957c-2.348,0-3.572,1.027-3.572,2.446,0,1.37.832,2.2,3.865,2.495l2.544.245c4.941.489,7.29,3.033,7.29,6.9,0,4.7-3.425,7.975-9.883,7.975A14.623,14.623,0,0,1,406.884,372.441Z" transform="translate(-135.012 -36.115)"/><path class="a" d="M480.964,369.6a18.287,18.287,0,0,1-.832-5.773,18.794,18.794,0,0,1,.783-5.823c1.321-4.11,4.942-6.507,9.638-6.507,4.844,0,8.366,2.5,9.687,6.507.538,1.663.783,3.278.783,7.094a.477.477,0,0,1-.538.489H485.954a.259.259,0,0,0-.293.293,5.483,5.483,0,0,0,5.626,5.382,7.109,7.109,0,0,0,5.529-2.25.5.5,0,0,1,.734-.1l2.887,2.544a.438.438,0,0,1,.049.685,12.428,12.428,0,0,1-9.687,4.012C485.807,376.159,482.285,373.713,480.964,369.6ZM495.2,359.182a5.04,5.04,0,0,0-9.247,0,5.987,5.987,0,0,0-.293,2.006.259.259,0,0,0,.293.293H495.2a.259.259,0,0,0,.293-.293A5.986,5.986,0,0,0,495.2,359.182Z" transform="translate(-185.107 -36.115)"/><path class="a" d="M554.849,356.117a.462.462,0,0,1-.489-.489v-27.3a.26.26,0,0,0-.293-.293h-8.709a.462.462,0,0,1-.489-.49v-4.207a.463.463,0,0,1,.489-.489h23.778a.462.462,0,0,1,.489.489v4.207a.462.462,0,0,1-.489.49h-8.709a.26.26,0,0,0-.293.293v27.3a.463.463,0,0,1-.489.489Z" transform="translate(-229.303 -16.61)"/><path class="a" d="M617.882,369.6a18.286,18.286,0,0,1-.831-5.773,18.793,18.793,0,0,1,.783-5.823c1.321-4.11,4.941-6.507,9.638-6.507,4.844,0,8.366,2.5,9.687,6.507.538,1.663.783,3.278.783,7.094a.477.477,0,0,1-.538.489H622.873a.26.26,0,0,0-.294.293,5.485,5.485,0,0,0,5.627,5.382,7.109,7.109,0,0,0,5.528-2.25.5.5,0,0,1,.734-.1l2.887,2.544a.438.438,0,0,1,.049.685,12.428,12.428,0,0,1-9.687,4.012C622.726,376.159,619.2,373.713,617.882,369.6Zm14.237-10.421a5.04,5.04,0,0,0-9.247,0,5.987,5.987,0,0,0-.294,2.006.26.26,0,0,0,.294.293h9.247a.259.259,0,0,0,.293-.293A5.988,5.988,0,0,0,632.12,359.182Z" transform="translate(-278.556 -36.115)"/><path class="a" d="M693.787,369.653a23.456,23.456,0,0,1,0-11.644c1.37-4.208,4.99-6.507,9.736-6.507a10.27,10.27,0,0,1,8.17,3.669.476.476,0,0,1-.049.685l-3.083,2.691a.443.443,0,0,1-.685-.1,5.339,5.339,0,0,0-4.354-2.055,4.324,4.324,0,0,0-4.4,3.082,13.86,13.86,0,0,0-.49,4.355,14.189,14.189,0,0,0,.49,4.4,4.339,4.339,0,0,0,4.4,3.033,5.339,5.339,0,0,0,4.354-2.055.438.438,0,0,1,.685-.049l3.083,2.691c.244.2.2.441.049.685a10.386,10.386,0,0,1-8.17,3.62C698.777,376.159,695.157,373.86,693.787,369.653Z" transform="translate(-330.554 -36.115)"/><path class="a" d="M780.911,356.117a.463.463,0,0,1-.49-.489v-13.6c0-3.034-1.517-5.137-4.452-5.137-2.837,0-4.5,2.1-4.5,5.137v13.6a.462.462,0,0,1-.489.489h-4.5a.462.462,0,0,1-.489-.489V323.336a.462.462,0,0,1,.489-.489h4.5a.462.462,0,0,1,.489.489v11.4h.049c1.027-1.468,3.082-2.74,6.213-2.74,5.039,0,8.17,3.718,8.17,8.758v14.873a.462.462,0,0,1-.489.489Z" transform="translate(-380.202 -16.61)"/><path class="b" d="M359.582,312.768h14.456a.955.955,0,0,0,.955-1.384l-7.228-12.123a1.152,1.152,0,0,0-1.909,0l-7.228,12.123A.955.955,0,0,0,359.582,312.768Z" transform="translate(-102.087 0)"/></g></svg>