<svg xmlns="http://www.w3.org/2000/svg" viewBox="0 0 79.92 112.45"><path d="M58.14,23.2c-22.64-10.63-41.75-1-49.59,11.05S-1,60.16,5.5,72.61a34.77,34.77,0,0,0,21.71,17.3,58.72,58.72,0,0,0-.68,5.94c-3.06-5.44-13.31-4.6-12.75,2s12.33,6,12.33,6c3.36,6.36,7.18,8.46,11.59,6.31s.82-7.53.82-7.53,31.21-6,36.79-24S80.77,33.83,58.14,23.2Z" style="fill:#fff"/><path d="M34.48,112.45c-2.89,0-6.18-1.67-9.27-7.1-3.1,0-12.38-.66-13-7.41A6.33,6.33,0,0,1,17,91.14a10.13,10.13,0,0,1,8.29,1.2c.06-.47.12-.92.17-1.3A36.19,36.19,0,0,1,4.13,73.32c-6.45-12.41-5.3-27,3.13-39.91A36.8,36.8,0,0,1,27.35,18.74c9.94-3,20.81-1.93,31.44,3.06s17.49,14,20,26c2.69,12.79-.12,25-2,31.21-2.45,7.9-9.63,14.53-21.33,19.7a88.09,88.09,0,0,1-14.66,4.92,7.31,7.31,0,0,1,.46,4.54,5.2,5.2,0,0,1-2.87,3.31A9,9,0,0,1,34.48,112.45Zm-8.37-10.2a1.55,1.55,0,0,1,1.37.82c3.87,7.34,7.3,6.74,9.54,5.64a2.06,2.06,0,0,0,1.25-1.33c.38-1.38-.62-3.33-1-4a1.55,1.55,0,0,1,1-2.37C38.53,101,68.6,95,73.83,78.11,83,48.58,70.75,30.83,57.48,24.59h0C42,17.3,20.61,18.57,9.85,35.09,2,47.08,1,60.5,6.87,71.9A33.56,33.56,0,0,0,27.53,88.4a1.55,1.55,0,0,1,1.2,1.77s-.52,3.09-.66,5.75a1.54,1.54,0,0,1-2.88.68c-1.42-2.5-4.88-3.25-7.27-2.51a3.31,3.31,0,0,0-2.6,3.58c.43,4.92,10.62,4.58,10.72,4.58Z" style="fill:#131d34"/><path d="M21.17,36.84c1-1.56,3.95-1.2,4.07.95" style="fill:#fff"/><path d="M25.24,38.6a.8.8,0,0,1-.81-.76,1.18,1.18,0,0,0-.95-1.1,1.49,1.49,0,0,0-1.62.52.81.81,0,0,1-1.11.27.82.82,0,0,1-.27-1.12,3.08,3.08,0,0,1,3.39-1.24,2.78,2.78,0,0,1,2.18,2.58.81.81,0,0,1-.77.85Z" style="fill:#131d34"/><path d="M47.61,42.7a2.21,2.21,0,0,1,4,1.2" style="fill:#fff"/><path d="M51.56,44.7a.8.8,0,0,1-.81-.76,1.37,1.37,0,0,0-1.07-1.26,1.24,1.24,0,0,0-1.38.44.81.81,0,1,1-1.38-.85,2.83,2.83,0,0,1,3.16-1.15,3,3,0,0,1,2.29,2.73.81.81,0,0,1-.77.85Z" style="fill:#131d34"/><path d="M30.2,43.2c.24,2.09,4.57,2.88,4.84-1-.76,3.66,3.94,4.83,5,2.91" style="fill:#fff"/><path d="M38.19,46.7a4,4,0,0,1-1.38-.25,3.85,3.85,0,0,1-2.09-1.75,3,3,0,0,1-2.09.89,2.9,2.9,0,0,1-3.08-2.32.65.65,0,0,1,1.3-.15,1.66,1.66,0,0,0,1.75,1.17,1.75,1.75,0,0,0,1.71-1.56,3.9,3.9,0,0,1,.09-.65.65.65,0,0,1,1.29.18,4.17,4.17,0,0,1-.08.63,2.34,2.34,0,0,0,1.64,2.33c.92.33,1.88.16,2.17-.39a.66.66,0,0,1,1.16.61A2.6,2.6,0,0,1,38.19,46.7Z" style="fill:#131d34"/><path d="M35.84,39.8c6.14,1.08,1.94,3.9-.86,3.34S30.34,38.75,35.84,39.8Z" style="fill:#131d34"/><polygon points="35.81 6.53 34.12 20.08 62.46 27.66 68.17 15.14 35.81 6.53" style="fill:#2bb8d9"/><path d="M62.46,29a1.24,1.24,0,0,1-.33,0L33.78,21.34a1.31,1.31,0,0,1-1-1.42L34.51,6.37a1.34,1.34,0,0,1,.57-.92,1.29,1.29,0,0,1,1.06-.18l32.37,8.61a1.26,1.26,0,0,1,.84.7,1.32,1.32,0,0,1,0,1.1L63.65,28.2A1.32,1.32,0,0,1,62.46,29ZM35.55,19.11l26.18,7L66.34,16,36.92,8.18Z" style="fill:#131d34"/><polygon points="28.35 3.38 49.46 19.66 76.94 17.5 55.64 1.3 28.35 3.38" style="fill:#2bb8d9"/><path d="M49.46,21a1.29,1.29,0,0,1-.8-.27L27.55,4.41a1.3,1.3,0,0,1,.7-2.33L55.54,0a1.29,1.29,0,0,1,.89.27l21.3,16.19A1.31,1.31,0,0,1,77,18.8L49.56,21ZM31.84,4.42l18,13.9,23.57-1.85L55.24,2.64Z" style="fill:#131d34"/><polygon points="49.74 10.61 55.32 12.53 53.78 7.18 49.74 10.61" style="fill:#fff"/><path d="M16.71,52.6s9-4.31,11.89-2.42-1.2,19.1-8.76,18.91" style="fill:#fff"/><path d="M20,70.23h-.16a1.15,1.15,0,0,1,.06-2.29c2.61.08,5.29-2.78,7.07-7.62s1.65-8.68,1-9.19c-1.57-1-7.35.88-10.75,2.51a1.15,1.15,0,1,1-1-2.07c1.61-.77,9.78-4.48,13-2.35,2.37,1.58,1.3,7.43.29,10.63C28.75,62.3,25.8,70.23,20,70.23Z" style="fill:#131d34"/><path d="M73.21,68.66c1.44,4.67,6,12.2,2.51,12.92a15,15,0,0,1-16-7.66" style="fill:#fff"/><path d="M73.11,83a16,16,0,0,1-14.43-8.5,1.15,1.15,0,1,1,2-1.09,13.89,13.89,0,0,0,14.79,7.08c.22,0,.25-.11.27-.15.53-1-1-4.61-2-7-.62-1.48-1.26-3-1.66-4.32a1.15,1.15,0,1,1,2.19-.68c.37,1.21,1,2.62,1.58,4.11,1.57,3.76,2.93,7,1.9,8.94A2.57,2.57,0,0,1,76,82.7,13.79,13.79,0,0,1,73.11,83Z" style="fill:#131d34"/><path d="M33.85,91.15a34,34,0,0,1-7.31-1.33" style="fill:#fff"/><path d="M33.85,92.69H33.8a34.75,34.75,0,0,1-7.71-1.4,1.54,1.54,0,1,1,.9-3,32.66,32.66,0,0,0,6.92,1.27,1.54,1.54,0,0,1-.06,3.08Z" style="fill:#131d34"/></svg>